<svg xmlns="http://www.w3.org/2000/svg" width="96" height="89" fill="none"><path fill="#FF8400" d="M95.252 36.867L83 28.743V1.589A1.59 1.59 0 0081.409 0H14.552a1.59 1.59 0 00-1.59 1.59v27.155L.713 36.867A1.587 1.587 0 000 38.191v49.22A1.59 1.59 0 001.59 89h92.784a1.59 1.59 0 001.59-1.59V38.192c0-.553-.283-1.04-.712-1.324zm-82.29 5.558l-4.984-2.644h4.985v2.644zM3.18 40.833l36.55 19.389L3.18 84.449V40.833zm44.8 17.732L89.1 85.821H6.861l41.12-27.256zm8.253 1.657l36.55-19.389V84.45l-36.55-24.228zM83 39.78h4.987L83 42.426v-2.645zm6.1-3.18H83v-4.044l6.101 4.045zM79.82 3.18v40.933l-26.601 14.11-4.36-2.89a1.59 1.59 0 00-1.756 0l-4.36 2.89-26.6-14.113V3.18H79.82zM12.963 36.602h-6.1l6.1-4.043v4.043z"/><path fill="#FF8400" d="M47.975 41.798h12.663a1.59 1.59 0 000-3.178H47.975c-6.106 0-11.074-4.968-11.074-11.074v-.469c0-6.106 4.968-11.073 11.074-11.073s11.073 4.967 11.073 11.073v1.173a2.4 2.4 0 01-2.397 2.397 2.4 2.4 0 01-2.397-2.397v-2.228a6.873 6.873 0 00-6.866-6.866 6.873 6.873 0 00-6.865 6.866 6.873 6.873 0 006.865 6.865 6.834 6.834 0 004.523-1.706 5.576 5.576 0 004.74 2.644 5.582 5.582 0 005.576-5.576v-1.172c0-7.859-6.394-14.252-14.252-14.252-7.859 0-14.252 6.393-14.252 14.252v.469c0 7.859 6.393 14.252 14.252 14.252zm-.587-12.09a3.69 3.69 0 01-3.686-3.686 3.691 3.691 0 013.686-3.687 3.691 3.691 0 013.687 3.687 3.69 3.69 0 01-3.687 3.687z"/></svg>